<svg width="383" height="301" viewBox="0 0 383 301" fill="none" xmlns="http://www.w3.org/2000/svg">
<path d="M174 295.417C168.477 295.417 164 290.94 164 285.417V236.417H220V285.417C220 290.94 215.523 295.417 210 295.417H174Z" fill="url(#paint0_linear_79_367)"/>
<mask id="path-2-inside-1_79_367" fill="white">
<rect y="0.417175" width="383" height="236" rx="10"/>
</mask>
<g filter="url(#filter0_i_79_367)">
<rect y="0.417175" width="383" height="236" rx="10" fill="url(#paint1_linear_79_367)"/>
</g>
<rect y="0.417175" width="383" height="236" rx="10" stroke="white" stroke-width="56" mask="url(#path-2-inside-1_79_367)"/>
<path d="M119 297.872C119 283.814 130.396 272.417 144.455 272.417H241.545C255.604 272.417 267 283.814 267 297.872C267 299.278 265.86 300.417 264.455 300.417H121.545C120.14 300.417 119 299.278 119 297.872Z" fill="white"/>
<defs>
<filter id="filter0_i_79_367" x="0" y="0.417175" width="383" height="236" filterUnits="userSpaceOnUse" color-interpolation-filters="sRGB">
<feFlood flood-opacity="0" result="BackgroundImageFix"/>
<feBlend mode="normal" in="SourceGraphic" in2="BackgroundImageFix" result="shape"/>
<feColorMatrix in="SourceAlpha" type="matrix" values="0 0 0 0 0 0 0 0 0 0 0 0 0 0 0 0 0 0 127 0" result="hardAlpha"/>
<feMorphology radius="30" operator="erode" in="SourceAlpha" result="effect1_innerShadow_79_367"/>
<feOffset/>
<feGaussianBlur stdDeviation="10"/>
<feComposite in2="hardAlpha" operator="arithmetic" k2="-1" k3="1"/>
<feColorMatrix type="matrix" values="0 0 0 0 0.415811 0 0 0 0 0.415811 0 0 0 0 0.415811 0 0 0 0.25 0"/>
<feBlend mode="normal" in2="shape" result="effect1_innerShadow_79_367"/>
</filter>
<linearGradient id="paint0_linear_79_367" x1="192" y1="236.417" x2="192" y2="295.417" gradientUnits="userSpaceOnUse">
<stop stop-color="#EEEEEE" stop-opacity="0.1"/>
<stop offset="0.229747" stop-color="white"/>
</linearGradient>
<linearGradient id="paint1_linear_79_367" x1="191.5" y1="0.417175" x2="191.5" y2="236.417" gradientUnits="userSpaceOnUse">
<stop offset="0.430008" stop-color="#717171"/>
<stop offset="0.709747" stop-color="#717171"/>
<stop offset="1" stop-color="#987A95"/>
</linearGradient>
</defs>
</svg>
