<svg width="1655" height="41" viewBox="0 0 1655 41" fill="none" xmlns="http://www.w3.org/2000/svg">
<path fill-rule="evenodd" clip-rule="evenodd" d="M113 27C127.912 27 140 14.9117 140 0H196C196 14.9117 208.088 27 223 27C237.912 27 250 14.9117 250 0H306C306 14.9117 318.088 27 333 27C347.912 27 360 14.9117 360 0H416C416 14.9117 428.088 27 443 27C457.912 27 470 14.9117 470 0H526C526 14.9117 538.088 27 553 27C567.912 27 580 14.9117 580 0H636C636 14.9117 648.088 27 663 27C677.912 27 690 14.9117 690 0H746C746 14.9117 758.088 27 773 27C787.912 27 800 14.9117 800 0H856C856 14.9117 868.088 27 883 27C897.912 27 910 14.9117 910 0H966C966 14.9117 978.088 27 993 27C1007.91 27 1020 14.9117 1020 0H1076C1076 14.9117 1088.09 27 1103 27C1117.91 27 1130 14.9117 1130 0H1186C1186 14.9117 1198.09 27 1213 27C1227.91 27 1240 14.9117 1240 0H1296C1296 14.9117 1308.09 27 1323 27C1337.91 27 1350 14.9117 1350 0H1406C1406 14.9117 1418.09 27 1433 27C1447.91 27 1460 14.9117 1460 0H1516C1516 14.9117 1528.09 27 1543 27C1557.91 27 1570 14.9117 1570 0H1655V41H0V0H86C86 14.9117 98.0883 27 113 27Z" fill="white"/>
</svg>
