<svg width="400" height="400" viewBox="0 0 400 400" fill="none" xmlns="http://www.w3.org/2000/svg">
<rect width="400" height="400" fill="#FFBB44"/>
<path d="M190.576 138.17C195.777 176.381 178 212.312 168.708 215.43C159.415 218.548 120.321 199.2 102.799 167.62C85.2774 136.039 84.9154 89.5449 122.267 77.013C159.619 64.4811 185.374 99.9584 190.576 138.17Z" fill="white"/>
<path d="M190.576 284.784C195.777 246.572 178 210.641 168.708 207.523C159.415 204.405 120.321 223.753 102.799 255.334C85.2774 286.914 84.9154 333.408 122.267 345.94C159.619 358.472 185.374 322.995 190.576 284.784Z" fill="white"/>
<path d="M215.629 124.703C197.105 158.526 200.854 198.439 208.417 204.675C215.98 210.91 259.408 206.825 287.066 183.6C314.724 160.376 331.692 117.087 301.293 92.0245C270.894 66.9619 234.154 90.8805 215.629 124.703Z" fill="white"/>
<path d="M279.605 230.664C244.168 215.452 204.795 222.992 199.31 231.116C193.825 239.239 202.035 282.079 227.793 307.395C253.55 332.711 298.261 345.47 320.308 312.819C342.356 280.168 315.041 245.877 279.605 230.664Z" fill="white"/>
</svg>
