<svg width="140" height="90" viewBox="0 0 140 90" xmlns="http://www.w3.org/2000/svg">
<path fill-rule="evenodd" clip-rule="evenodd" d="M23.6248 41.7263V73.7787C23.6248 78.6943 27.1974 82.881 32.0519 83.6542L68.5519 89.4675C69.5939 89.6334 70.6556 89.6334 71.6976 89.4675L108.198 83.6542C113.052 82.881 116.625 78.6943 116.625 73.7787V42.6024L72.0959 55.4918C70.8768 55.8447 69.5715 55.8343 68.359 55.462L23.6248 41.7263Z"/>
<path d="M4.13775 32.3324C-1.38353 30.5297 -1.37777 22.7169 4.14616 20.9223L67.6444 0.293579C68.8923 -0.11185 70.2388 -0.0969937 71.4775 0.335874L135.159 22.5891C140.627 24.5 140.481 32.2837 134.945 33.9877L72.041 53.3492C70.8577 53.7134 69.5907 53.7027 68.4137 53.3184L4.13775 32.3324Z"/>
<line x1="124.625" y1="35.7263" x2="124.625" y2="68.7263" stroke="black" stroke-width="4" stroke-linecap="round"/>
</svg>
