<svg width="79" height="75" viewBox="0 0 79 75" fill="none" xmlns="http://www.w3.org/2000/svg">
<mask id="path-1-inside-1_272_103" fill="white">
<path d="M0 30C0 27.2386 2.23858 25 5 25H74C76.7614 25 79 27.2386 79 30V70C79 72.7614 76.7614 75 74 75H5C2.23858 75 0 72.7614 0 70V30Z"/>
</mask>
<path d="M0 25H79H0ZM83 70C83 74.9706 78.9706 79 74 79H5C0.0294373 79 -4 74.9706 -4 70H4C4 70.5523 4.44772 71 5 71H74C74.5523 71 75 70.5523 75 70H83ZM5 79C0.0294373 79 -4 74.9706 -4 70V34C-4 29.0294 0.0294373 25 5 25C4.44772 25 4 27.2386 4 30V70C4 70.5523 4.44772 71 5 71V79ZM74 25C78.9706 25 83 29.0294 83 34V70C83 74.9706 78.9706 79 74 79V71C74.5523 71 75 70.5523 75 70V30C75 27.2386 74.5523 25 74 25Z" fill="white" mask="url(#path-1-inside-1_272_103)"/>
<path d="M3.9502 28L39.5002 52L75.0502 28" stroke="white" stroke-width="4" stroke-linecap="round"/>
<path d="M3.9502 27L39.5002 3L75.0502 27" stroke="white" stroke-width="4" stroke-linecap="round"/>
</svg>
